<svg width="14" height="14" viewBox="0 0 14 14" fill="none" xmlns="http://www.w3.org/2000/svg">
    <path d="M1.75 3.5H2.91667H12.25" stroke="black" stroke-linecap="round" stroke-linejoin="round"/>
    <path d="M11.0833 3.49996V11.6666C11.0833 11.976 10.9604 12.2728 10.7416 12.4916C10.5228 12.7104 10.2261 12.8333 9.91666 12.8333H4.08332C3.7739 12.8333 3.47716 12.7104 3.25837 12.4916C3.03957 12.2728 2.91666 11.976 2.91666 11.6666V3.49996M4.66666 3.49996V2.33329C4.66666 2.02387 4.78957 1.72713 5.00837 1.50833C5.22716 1.28954 5.5239 1.16663 5.83332 1.16663H8.16666C8.47608 1.16663 8.77282 1.28954 8.99161 1.50833C9.21041 1.72713 9.33332 2.02387 9.33332 2.33329V3.49996"
          stroke="black" stroke-linecap="round" stroke-linejoin="round"/>
    <path d="M5.83334 6.41663V9.91663" stroke="black" stroke-linecap="round" stroke-linejoin="round"/>
    <path d="M8.16666 6.41663V9.91663" stroke="black" stroke-linecap="round" stroke-linejoin="round"/>
</svg>